<mxfile host="app.diagrams.net" modified="2021-06-30T18:50:33.717Z" agent="5.0 (Macintosh; Intel Mac OS X 10_13_6) AppleWebKit/537.36 (KHTML, like Gecko) Chrome/91.0.4472.114 Safari/537.36" etag="cP1TFjLhYvdlRO7xjI9-" version="14.8.1" type="github" pages="4">
  <diagram id="sKt8JdDfVMIgMYwnbkXk" name="Page-1">
    <mxGraphModel dx="1426" dy="918" grid="1" gridSize="10" guides="1" tooltips="1" connect="1" arrows="1" fold="1" page="1" pageScale="1" pageWidth="1920" pageHeight="1200" math="0" shadow="0">
      <root>
        <mxCell id="0" />
        <mxCell id="1" parent="0" />
        <mxCell id="dXnMGtw8Z0hvcf-FEyJH-1" value="Legenda" style="swimlane;rounded=1;dashed=1;dashPattern=1 1;fontSize=16;strokeColor=#000000;fillColor=#ffffff;align=left;spacingLeft=10;spacingRight=10;" vertex="1" parent="1">
          <mxGeometry x="80" y="80" width="370" height="523" as="geometry" />
        </mxCell>
        <mxCell id="dXnMGtw8Z0hvcf-FEyJH-2" value="" style="group" vertex="1" connectable="0" parent="dXnMGtw8Z0hvcf-FEyJH-1">
          <mxGeometry x="20" y="43" width="330" height="460" as="geometry" />
        </mxCell>
        <mxCell id="dXnMGtw8Z0hvcf-FEyJH-3" value="&lt;div&gt;Primeiro nível&lt;/div&gt;" style="whiteSpace=wrap;html=1;fillColor=#dae8fc;strokeColor=#6c8ebf;" vertex="1" parent="dXnMGtw8Z0hvcf-FEyJH-2">
          <mxGeometry y="60" width="120" height="60" as="geometry" />
        </mxCell>
        <mxCell id="dXnMGtw8Z0hvcf-FEyJH-4" value="&lt;div&gt;Segundo nível&lt;/div&gt;" style="whiteSpace=wrap;html=1;fillColor=#d5e8d4;strokeColor=#82b366;" vertex="1" parent="dXnMGtw8Z0hvcf-FEyJH-2">
          <mxGeometry y="140" width="120" height="60" as="geometry" />
        </mxCell>
        <mxCell id="dXnMGtw8Z0hvcf-FEyJH-5" value="&lt;div&gt;Terceiro nível&lt;/div&gt;" style="whiteSpace=wrap;html=1;fillColor=#ffe6cc;strokeColor=#d79b00;" vertex="1" parent="dXnMGtw8Z0hvcf-FEyJH-2">
          <mxGeometry y="220" width="120" height="60" as="geometry" />
        </mxCell>
        <mxCell id="dXnMGtw8Z0hvcf-FEyJH-6" value="&lt;div&gt;Conteúdo interno da página&lt;/div&gt;" style="whiteSpace=wrap;html=1;fillColor=none;dashed=1;" vertex="1" parent="dXnMGtw8Z0hvcf-FEyJH-2">
          <mxGeometry y="300" width="120" height="60" as="geometry" />
        </mxCell>
        <mxCell id="dXnMGtw8Z0hvcf-FEyJH-7" value="Grupo de páginas" style="whiteSpace=wrap;html=1;fillColor=none;dashed=1;spacingLeft=0;align=center;labelPosition=center;verticalLabelPosition=bottom;verticalAlign=top;spacingBottom=10;dashPattern=1 1;" vertex="1" parent="dXnMGtw8Z0hvcf-FEyJH-2">
          <mxGeometry x="190" y="140" width="140" height="160" as="geometry" />
        </mxCell>
        <mxCell id="dXnMGtw8Z0hvcf-FEyJH-8" value="&lt;div&gt;Primeiro nível&lt;/div&gt;" style="whiteSpace=wrap;html=1;fillColor=#dae8fc;strokeColor=#6c8ebf;" vertex="1" parent="dXnMGtw8Z0hvcf-FEyJH-2">
          <mxGeometry x="200" y="150" width="120" height="60" as="geometry" />
        </mxCell>
        <mxCell id="dXnMGtw8Z0hvcf-FEyJH-9" value="&lt;div&gt;Segundo nível&lt;/div&gt;" style="whiteSpace=wrap;html=1;fillColor=#d5e8d4;strokeColor=#82b366;" vertex="1" parent="dXnMGtw8Z0hvcf-FEyJH-2">
          <mxGeometry x="200" y="230" width="120" height="60" as="geometry" />
        </mxCell>
        <mxCell id="dXnMGtw8Z0hvcf-FEyJH-10" value="Conteúdo pago / Acesso restrito" style="shape=waypoint;sketch=0;fillStyle=solid;size=6;pointerEvents=1;points=[];fillColor=none;resizable=0;rotatable=0;perimeter=centerPerimeter;snapToPoint=1;dashed=1;align=left;labelPosition=right;verticalLabelPosition=middle;verticalAlign=middle;spacingLeft=10;" vertex="1" parent="dXnMGtw8Z0hvcf-FEyJH-2">
          <mxGeometry y="380" width="40" height="40" as="geometry" />
        </mxCell>
        <mxCell id="dXnMGtw8Z0hvcf-FEyJH-11" value="Tipo de usuário" style="shape=waypoint;sketch=0;fillStyle=solid;size=6;pointerEvents=1;points=[];fillColor=none;resizable=0;rotatable=0;perimeter=centerPerimeter;snapToPoint=1;dashed=1;align=left;labelPosition=right;verticalLabelPosition=middle;verticalAlign=middle;spacingLeft=10;" vertex="1" parent="dXnMGtw8Z0hvcf-FEyJH-2">
          <mxGeometry y="420" width="40" height="40" as="geometry" />
        </mxCell>
        <mxCell id="dXnMGtw8Z0hvcf-FEyJH-12" value="&lt;div&gt;Pop- up&lt;/div&gt;" style="whiteSpace=wrap;html=1;fillColor=#e1d5e7;strokeColor=#9673a6;" vertex="1" parent="dXnMGtw8Z0hvcf-FEyJH-2">
          <mxGeometry x="200" y="60" width="120" height="60" as="geometry" />
        </mxCell>
        <mxCell id="dXnMGtw8Z0hvcf-FEyJH-13" value="Legenda" style="text;strokeColor=none;fillColor=none;html=1;fontSize=24;fontStyle=1;verticalAlign=middle;align=center;dashed=1;" vertex="1" parent="dXnMGtw8Z0hvcf-FEyJH-2">
          <mxGeometry width="100" height="40" as="geometry" />
        </mxCell>
        <mxCell id="dXnMGtw8Z0hvcf-FEyJH-14" value="Mapa estrutural / Site map" style="swimlane;rounded=1;dashed=1;dashPattern=1 1;fontSize=16;strokeColor=#000000;fillColor=#ffffff;align=left;spacingLeft=10;spacingRight=10;" vertex="1" parent="1">
          <mxGeometry x="800" y="80" width="280" height="223" as="geometry" />
        </mxCell>
        <mxCell id="dXnMGtw8Z0hvcf-FEyJH-15" value="" style="group" vertex="1" connectable="0" parent="dXnMGtw8Z0hvcf-FEyJH-14">
          <mxGeometry x="20" y="43" width="240" height="160" as="geometry" />
        </mxCell>
        <UserObject label="Organization" treeRoot="1" id="dXnMGtw8Z0hvcf-FEyJH-16">
          <mxCell style="whiteSpace=wrap;html=1;align=center;treeFolding=1;treeMoving=1;newEdgeStyle={&quot;edgeStyle&quot;:&quot;elbowEdgeStyle&quot;,&quot;startArrow&quot;:&quot;none&quot;,&quot;endArrow&quot;:&quot;none&quot;};" vertex="1" parent="dXnMGtw8Z0hvcf-FEyJH-15">
            <mxGeometry x="60" width="120" height="60" as="geometry" />
          </mxCell>
        </UserObject>
        <mxCell id="dXnMGtw8Z0hvcf-FEyJH-17" value="Division" style="whiteSpace=wrap;html=1;align=center;verticalAlign=middle;treeFolding=1;treeMoving=1;newEdgeStyle={&quot;edgeStyle&quot;:&quot;elbowEdgeStyle&quot;,&quot;startArrow&quot;:&quot;none&quot;,&quot;endArrow&quot;:&quot;none&quot;};" vertex="1" parent="dXnMGtw8Z0hvcf-FEyJH-15">
          <mxGeometry y="100" width="100" height="60" as="geometry" />
        </mxCell>
        <mxCell id="dXnMGtw8Z0hvcf-FEyJH-18" value="" style="edgeStyle=elbowEdgeStyle;elbow=vertical;startArrow=none;endArrow=none;rounded=0;" edge="1" parent="dXnMGtw8Z0hvcf-FEyJH-15" source="dXnMGtw8Z0hvcf-FEyJH-16" target="dXnMGtw8Z0hvcf-FEyJH-17">
          <mxGeometry relative="1" as="geometry" />
        </mxCell>
        <mxCell id="dXnMGtw8Z0hvcf-FEyJH-19" value="Division" style="whiteSpace=wrap;html=1;align=center;verticalAlign=middle;treeFolding=1;treeMoving=1;newEdgeStyle={&quot;edgeStyle&quot;:&quot;elbowEdgeStyle&quot;,&quot;startArrow&quot;:&quot;none&quot;,&quot;endArrow&quot;:&quot;none&quot;};" vertex="1" parent="dXnMGtw8Z0hvcf-FEyJH-15">
          <mxGeometry x="140" y="100" width="100" height="60" as="geometry" />
        </mxCell>
        <mxCell id="dXnMGtw8Z0hvcf-FEyJH-20" value="" style="edgeStyle=elbowEdgeStyle;elbow=vertical;startArrow=none;endArrow=none;rounded=0;" edge="1" parent="dXnMGtw8Z0hvcf-FEyJH-15" source="dXnMGtw8Z0hvcf-FEyJH-16" target="dXnMGtw8Z0hvcf-FEyJH-19">
          <mxGeometry relative="1" as="geometry" />
        </mxCell>
        <mxCell id="dXnMGtw8Z0hvcf-FEyJH-21" value="Profundidade" style="swimlane;rounded=1;dashed=1;dashPattern=1 1;fontSize=16;strokeColor=#000000;fillColor=#ffffff;align=left;spacingLeft=10;spacingRight=10;" vertex="1" parent="1">
          <mxGeometry x="1340" y="650" width="480" height="493" as="geometry" />
        </mxCell>
        <mxCell id="dXnMGtw8Z0hvcf-FEyJH-22" value="Start" style="ellipse" vertex="1" parent="dXnMGtw8Z0hvcf-FEyJH-21">
          <mxGeometry x="200" y="123" width="80" height="30" as="geometry" />
        </mxCell>
        <mxCell id="dXnMGtw8Z0hvcf-FEyJH-23" value="Entry" style="rounded=1;" vertex="1" parent="dXnMGtw8Z0hvcf-FEyJH-21">
          <mxGeometry x="80" y="203" width="80" height="30" as="geometry" />
        </mxCell>
        <mxCell id="dXnMGtw8Z0hvcf-FEyJH-24" value="" style="edgeStyle=elbowEdgeStyle;elbow=vertical;" edge="1" parent="dXnMGtw8Z0hvcf-FEyJH-21" source="dXnMGtw8Z0hvcf-FEyJH-22" target="dXnMGtw8Z0hvcf-FEyJH-23">
          <mxGeometry relative="1" as="geometry" />
        </mxCell>
        <mxCell id="dXnMGtw8Z0hvcf-FEyJH-25" value="Entry" style="rounded=1;" vertex="1" parent="dXnMGtw8Z0hvcf-FEyJH-21">
          <mxGeometry x="320" y="203" width="80" height="30" as="geometry" />
        </mxCell>
        <mxCell id="dXnMGtw8Z0hvcf-FEyJH-26" value="" style="edgeStyle=elbowEdgeStyle;elbow=vertical;" edge="1" parent="dXnMGtw8Z0hvcf-FEyJH-21" source="dXnMGtw8Z0hvcf-FEyJH-22" target="dXnMGtw8Z0hvcf-FEyJH-25">
          <mxGeometry relative="1" as="geometry" />
        </mxCell>
        <mxCell id="dXnMGtw8Z0hvcf-FEyJH-27" value="Entry" style="rounded=1;" vertex="1" parent="dXnMGtw8Z0hvcf-FEyJH-21">
          <mxGeometry x="80" y="283" width="80" height="30" as="geometry" />
        </mxCell>
        <mxCell id="dXnMGtw8Z0hvcf-FEyJH-28" value="" style="edgeStyle=elbowEdgeStyle;elbow=vertical;" edge="1" parent="dXnMGtw8Z0hvcf-FEyJH-21" source="dXnMGtw8Z0hvcf-FEyJH-23" target="dXnMGtw8Z0hvcf-FEyJH-27">
          <mxGeometry relative="1" as="geometry" />
        </mxCell>
        <mxCell id="dXnMGtw8Z0hvcf-FEyJH-29" value="Entry" style="rounded=1;" vertex="1" parent="dXnMGtw8Z0hvcf-FEyJH-21">
          <mxGeometry x="20" y="363" width="80" height="30" as="geometry" />
        </mxCell>
        <mxCell id="dXnMGtw8Z0hvcf-FEyJH-30" value="" style="edgeStyle=elbowEdgeStyle;elbow=vertical;" edge="1" parent="dXnMGtw8Z0hvcf-FEyJH-21" source="dXnMGtw8Z0hvcf-FEyJH-27" target="dXnMGtw8Z0hvcf-FEyJH-29">
          <mxGeometry relative="1" as="geometry" />
        </mxCell>
        <mxCell id="dXnMGtw8Z0hvcf-FEyJH-31" value="Entry" style="rounded=1;" vertex="1" parent="dXnMGtw8Z0hvcf-FEyJH-21">
          <mxGeometry x="140" y="363" width="80" height="30" as="geometry" />
        </mxCell>
        <mxCell id="dXnMGtw8Z0hvcf-FEyJH-32" value="" style="edgeStyle=elbowEdgeStyle;elbow=vertical;" edge="1" parent="dXnMGtw8Z0hvcf-FEyJH-21" source="dXnMGtw8Z0hvcf-FEyJH-27" target="dXnMGtw8Z0hvcf-FEyJH-31">
          <mxGeometry relative="1" as="geometry" />
        </mxCell>
        <mxCell id="dXnMGtw8Z0hvcf-FEyJH-33" value="Entry" style="rounded=1;" vertex="1" parent="dXnMGtw8Z0hvcf-FEyJH-21">
          <mxGeometry x="260" y="283" width="80" height="30" as="geometry" />
        </mxCell>
        <mxCell id="dXnMGtw8Z0hvcf-FEyJH-34" value="" style="edgeStyle=elbowEdgeStyle;elbow=vertical;" edge="1" parent="dXnMGtw8Z0hvcf-FEyJH-21" source="dXnMGtw8Z0hvcf-FEyJH-25" target="dXnMGtw8Z0hvcf-FEyJH-33">
          <mxGeometry relative="1" as="geometry" />
        </mxCell>
        <mxCell id="dXnMGtw8Z0hvcf-FEyJH-35" value="Entry" style="rounded=1;" vertex="1" parent="dXnMGtw8Z0hvcf-FEyJH-21">
          <mxGeometry x="380" y="283" width="80" height="30" as="geometry" />
        </mxCell>
        <mxCell id="dXnMGtw8Z0hvcf-FEyJH-36" value="" style="edgeStyle=elbowEdgeStyle;elbow=vertical;" edge="1" parent="dXnMGtw8Z0hvcf-FEyJH-21" source="dXnMGtw8Z0hvcf-FEyJH-25" target="dXnMGtw8Z0hvcf-FEyJH-35">
          <mxGeometry relative="1" as="geometry" />
        </mxCell>
        <mxCell id="dXnMGtw8Z0hvcf-FEyJH-37" value="Entry" style="rounded=1;" vertex="1" parent="dXnMGtw8Z0hvcf-FEyJH-21">
          <mxGeometry x="260" y="363" width="80" height="30" as="geometry" />
        </mxCell>
        <mxCell id="dXnMGtw8Z0hvcf-FEyJH-38" value="" style="edgeStyle=elbowEdgeStyle;elbow=vertical;" edge="1" parent="dXnMGtw8Z0hvcf-FEyJH-21" source="dXnMGtw8Z0hvcf-FEyJH-33" target="dXnMGtw8Z0hvcf-FEyJH-37">
          <mxGeometry relative="1" as="geometry" />
        </mxCell>
        <mxCell id="dXnMGtw8Z0hvcf-FEyJH-39" value="Entry" style="rounded=1;" vertex="1" parent="dXnMGtw8Z0hvcf-FEyJH-21">
          <mxGeometry x="260" y="443" width="80" height="30" as="geometry" />
        </mxCell>
        <mxCell id="dXnMGtw8Z0hvcf-FEyJH-40" value="" style="edgeStyle=elbowEdgeStyle;elbow=vertical;" edge="1" parent="dXnMGtw8Z0hvcf-FEyJH-21" source="dXnMGtw8Z0hvcf-FEyJH-37" target="dXnMGtw8Z0hvcf-FEyJH-39">
          <mxGeometry relative="1" as="geometry" />
        </mxCell>
        <mxCell id="dXnMGtw8Z0hvcf-FEyJH-41" value="Profundidade" style="text;strokeColor=none;fillColor=none;html=1;fontSize=24;fontStyle=1;verticalAlign=middle;align=center;dashed=1;" vertex="1" parent="dXnMGtw8Z0hvcf-FEyJH-21">
          <mxGeometry x="190" y="43" width="100" height="40" as="geometry" />
        </mxCell>
        <mxCell id="dXnMGtw8Z0hvcf-FEyJH-42" value="Outline (lista estruturada" style="swimlane;rounded=1;dashed=1;dashPattern=1 1;fontSize=16;strokeColor=#000000;fillColor=#ffffff;align=left;spacingLeft=10;spacingRight=10;" vertex="1" parent="1">
          <mxGeometry x="530" y="80" width="240" height="218" as="geometry" />
        </mxCell>
        <mxCell id="dXnMGtw8Z0hvcf-FEyJH-43" value="&lt;ol style=&quot;font-size: 16px ; line-height: 180%&quot;&gt;&lt;li style=&quot;font-size: 16px&quot;&gt;Value 1&lt;/li&gt;&lt;li style=&quot;font-size: 16px&quot;&gt;Value 2&lt;/li&gt;&lt;li style=&quot;font-size: 16px&quot;&gt;Value 3&lt;/li&gt;&lt;/ol&gt;" style="text;html=1;whiteSpace=wrap;verticalAlign=middle;overflow=hidden;dashed=1;dashPattern=1 1;fillColor=#ffffff;strokeColor=#000000;rounded=1;fontSize=16;" vertex="1" parent="dXnMGtw8Z0hvcf-FEyJH-42">
          <mxGeometry x="45" y="43" width="150" height="155" as="geometry" />
        </mxCell>
        <mxCell id="dXnMGtw8Z0hvcf-FEyJH-44" value="Largura" style="swimlane;rounded=1;dashed=1;dashPattern=1 1;fontSize=16;strokeColor=#000000;fillColor=#ffffff;align=left;spacingLeft=10;spacingRight=10;" vertex="1" parent="1">
          <mxGeometry x="520" y="368.5" width="948" height="253" as="geometry" />
        </mxCell>
        <mxCell id="dXnMGtw8Z0hvcf-FEyJH-45" value="Start" style="ellipse" vertex="1" parent="dXnMGtw8Z0hvcf-FEyJH-44">
          <mxGeometry x="464" y="43" width="80" height="30" as="geometry" />
        </mxCell>
        <mxCell id="dXnMGtw8Z0hvcf-FEyJH-46" value="Entry" style="rounded=1;" vertex="1" parent="dXnMGtw8Z0hvcf-FEyJH-44">
          <mxGeometry x="80" y="123" width="80" height="30" as="geometry" />
        </mxCell>
        <mxCell id="dXnMGtw8Z0hvcf-FEyJH-47" value="" style="edgeStyle=elbowEdgeStyle;elbow=vertical;" edge="1" parent="dXnMGtw8Z0hvcf-FEyJH-44" source="dXnMGtw8Z0hvcf-FEyJH-45" target="dXnMGtw8Z0hvcf-FEyJH-46">
          <mxGeometry relative="1" as="geometry" />
        </mxCell>
        <mxCell id="dXnMGtw8Z0hvcf-FEyJH-48" value="Entry" style="rounded=1;" vertex="1" parent="dXnMGtw8Z0hvcf-FEyJH-44">
          <mxGeometry x="248" y="123" width="80" height="30" as="geometry" />
        </mxCell>
        <mxCell id="dXnMGtw8Z0hvcf-FEyJH-49" value="" style="edgeStyle=elbowEdgeStyle;elbow=vertical;" edge="1" parent="dXnMGtw8Z0hvcf-FEyJH-44" source="dXnMGtw8Z0hvcf-FEyJH-45" target="dXnMGtw8Z0hvcf-FEyJH-48">
          <mxGeometry relative="1" as="geometry" />
        </mxCell>
        <mxCell id="dXnMGtw8Z0hvcf-FEyJH-50" value="Entry" style="rounded=1;" vertex="1" parent="dXnMGtw8Z0hvcf-FEyJH-44">
          <mxGeometry x="368" y="123" width="80" height="30" as="geometry" />
        </mxCell>
        <mxCell id="dXnMGtw8Z0hvcf-FEyJH-51" value="" style="edgeStyle=elbowEdgeStyle;elbow=vertical;" edge="1" parent="dXnMGtw8Z0hvcf-FEyJH-44" source="dXnMGtw8Z0hvcf-FEyJH-45" target="dXnMGtw8Z0hvcf-FEyJH-50">
          <mxGeometry relative="1" as="geometry" />
        </mxCell>
        <mxCell id="dXnMGtw8Z0hvcf-FEyJH-52" value="Entry" style="rounded=1;" vertex="1" parent="dXnMGtw8Z0hvcf-FEyJH-44">
          <mxGeometry x="488" y="123" width="80" height="30" as="geometry" />
        </mxCell>
        <mxCell id="dXnMGtw8Z0hvcf-FEyJH-53" value="" style="edgeStyle=elbowEdgeStyle;elbow=vertical;" edge="1" parent="dXnMGtw8Z0hvcf-FEyJH-44" source="dXnMGtw8Z0hvcf-FEyJH-45" target="dXnMGtw8Z0hvcf-FEyJH-52">
          <mxGeometry relative="1" as="geometry" />
        </mxCell>
        <mxCell id="dXnMGtw8Z0hvcf-FEyJH-54" value="Entry" style="rounded=1;" vertex="1" parent="dXnMGtw8Z0hvcf-FEyJH-44">
          <mxGeometry x="20" y="203" width="80" height="30" as="geometry" />
        </mxCell>
        <mxCell id="dXnMGtw8Z0hvcf-FEyJH-55" value="" style="edgeStyle=elbowEdgeStyle;elbow=vertical;" edge="1" parent="dXnMGtw8Z0hvcf-FEyJH-44" source="dXnMGtw8Z0hvcf-FEyJH-46" target="dXnMGtw8Z0hvcf-FEyJH-54">
          <mxGeometry relative="1" as="geometry" />
        </mxCell>
        <mxCell id="dXnMGtw8Z0hvcf-FEyJH-56" value="Entry" style="rounded=1;" vertex="1" parent="dXnMGtw8Z0hvcf-FEyJH-44">
          <mxGeometry x="140" y="203" width="80" height="30" as="geometry" />
        </mxCell>
        <mxCell id="dXnMGtw8Z0hvcf-FEyJH-57" value="" style="edgeStyle=elbowEdgeStyle;elbow=vertical;" edge="1" parent="dXnMGtw8Z0hvcf-FEyJH-44" source="dXnMGtw8Z0hvcf-FEyJH-46" target="dXnMGtw8Z0hvcf-FEyJH-56">
          <mxGeometry relative="1" as="geometry" />
        </mxCell>
        <mxCell id="dXnMGtw8Z0hvcf-FEyJH-58" value="Entry" style="rounded=1;" vertex="1" parent="dXnMGtw8Z0hvcf-FEyJH-44">
          <mxGeometry x="608" y="123" width="80" height="30" as="geometry" />
        </mxCell>
        <mxCell id="dXnMGtw8Z0hvcf-FEyJH-59" value="" style="edgeStyle=elbowEdgeStyle;elbow=vertical;" edge="1" parent="dXnMGtw8Z0hvcf-FEyJH-44" source="dXnMGtw8Z0hvcf-FEyJH-45" target="dXnMGtw8Z0hvcf-FEyJH-58">
          <mxGeometry relative="1" as="geometry" />
        </mxCell>
        <mxCell id="dXnMGtw8Z0hvcf-FEyJH-60" value="Entry" style="rounded=1;" vertex="1" parent="dXnMGtw8Z0hvcf-FEyJH-44">
          <mxGeometry x="728" y="123" width="80" height="30" as="geometry" />
        </mxCell>
        <mxCell id="dXnMGtw8Z0hvcf-FEyJH-61" value="" style="edgeStyle=elbowEdgeStyle;elbow=vertical;" edge="1" parent="dXnMGtw8Z0hvcf-FEyJH-44" source="dXnMGtw8Z0hvcf-FEyJH-45" target="dXnMGtw8Z0hvcf-FEyJH-60">
          <mxGeometry relative="1" as="geometry" />
        </mxCell>
        <mxCell id="dXnMGtw8Z0hvcf-FEyJH-62" value="Entry" style="rounded=1;" vertex="1" parent="dXnMGtw8Z0hvcf-FEyJH-44">
          <mxGeometry x="848" y="123" width="80" height="30" as="geometry" />
        </mxCell>
        <mxCell id="dXnMGtw8Z0hvcf-FEyJH-63" value="" style="edgeStyle=elbowEdgeStyle;elbow=vertical;" edge="1" parent="dXnMGtw8Z0hvcf-FEyJH-44" source="dXnMGtw8Z0hvcf-FEyJH-45" target="dXnMGtw8Z0hvcf-FEyJH-62">
          <mxGeometry relative="1" as="geometry" />
        </mxCell>
      </root>
    </mxGraphModel>
  </diagram>
  <diagram id="85462i4B7y33VcTYYwDs" name="Page-2">
    <mxGraphModel dx="3565" dy="2295" grid="1" gridSize="10" guides="1" tooltips="1" connect="1" arrows="1" fold="1" page="1" pageScale="1" pageWidth="1920" pageHeight="1200" math="0" shadow="0">
      <root>
        <mxCell id="xHrqsBkSKCTV0WYc4xok-0" />
        <mxCell id="xHrqsBkSKCTV0WYc4xok-1" parent="xHrqsBkSKCTV0WYc4xok-0" />
        <mxCell id="xHrqsBkSKCTV0WYc4xok-2" value="Legenda" style="swimlane;rounded=1;dashed=1;dashPattern=1 1;fontSize=16;strokeColor=#000000;fillColor=#ffffff;align=left;spacingLeft=10;spacingRight=10;" vertex="1" parent="xHrqsBkSKCTV0WYc4xok-1">
          <mxGeometry x="80" y="80" width="370" height="523" as="geometry" />
        </mxCell>
        <mxCell id="xHrqsBkSKCTV0WYc4xok-3" value="" style="group" vertex="1" connectable="0" parent="xHrqsBkSKCTV0WYc4xok-2">
          <mxGeometry x="20" y="43" width="330" height="460" as="geometry" />
        </mxCell>
        <mxCell id="xHrqsBkSKCTV0WYc4xok-4" value="&lt;div&gt;Primeiro nível&lt;/div&gt;" style="whiteSpace=wrap;html=1;fillColor=#dae8fc;strokeColor=#6c8ebf;" vertex="1" parent="xHrqsBkSKCTV0WYc4xok-3">
          <mxGeometry y="60" width="120" height="60" as="geometry" />
        </mxCell>
        <mxCell id="xHrqsBkSKCTV0WYc4xok-5" value="&lt;div&gt;Segundo nível&lt;/div&gt;" style="whiteSpace=wrap;html=1;fillColor=#d5e8d4;strokeColor=#82b366;" vertex="1" parent="xHrqsBkSKCTV0WYc4xok-3">
          <mxGeometry y="140" width="120" height="60" as="geometry" />
        </mxCell>
        <mxCell id="xHrqsBkSKCTV0WYc4xok-6" value="&lt;div&gt;Terceiro nível&lt;/div&gt;" style="whiteSpace=wrap;html=1;fillColor=#ffe6cc;strokeColor=#d79b00;" vertex="1" parent="xHrqsBkSKCTV0WYc4xok-3">
          <mxGeometry y="220" width="120" height="60" as="geometry" />
        </mxCell>
        <mxCell id="xHrqsBkSKCTV0WYc4xok-7" value="&lt;div&gt;Conteúdo interno da página&lt;/div&gt;" style="whiteSpace=wrap;html=1;fillColor=none;dashed=1;" vertex="1" parent="xHrqsBkSKCTV0WYc4xok-3">
          <mxGeometry y="300" width="120" height="60" as="geometry" />
        </mxCell>
        <mxCell id="xHrqsBkSKCTV0WYc4xok-8" value="Grupo de páginas" style="whiteSpace=wrap;html=1;fillColor=none;dashed=1;spacingLeft=0;align=center;labelPosition=center;verticalLabelPosition=bottom;verticalAlign=top;spacingBottom=10;dashPattern=1 1;" vertex="1" parent="xHrqsBkSKCTV0WYc4xok-3">
          <mxGeometry x="190" y="140" width="140" height="160" as="geometry" />
        </mxCell>
        <mxCell id="xHrqsBkSKCTV0WYc4xok-9" value="&lt;div&gt;Primeiro nível&lt;/div&gt;" style="whiteSpace=wrap;html=1;fillColor=#dae8fc;strokeColor=#6c8ebf;" vertex="1" parent="xHrqsBkSKCTV0WYc4xok-3">
          <mxGeometry x="200" y="150" width="120" height="60" as="geometry" />
        </mxCell>
        <mxCell id="xHrqsBkSKCTV0WYc4xok-10" value="&lt;div&gt;Segundo nível&lt;/div&gt;" style="whiteSpace=wrap;html=1;fillColor=#d5e8d4;strokeColor=#82b366;" vertex="1" parent="xHrqsBkSKCTV0WYc4xok-3">
          <mxGeometry x="200" y="230" width="120" height="60" as="geometry" />
        </mxCell>
        <mxCell id="xHrqsBkSKCTV0WYc4xok-11" value="Conteúdo pago / Acesso restrito" style="shape=waypoint;sketch=0;fillStyle=solid;size=6;pointerEvents=1;points=[];fillColor=none;resizable=0;rotatable=0;perimeter=centerPerimeter;snapToPoint=1;dashed=1;align=left;labelPosition=right;verticalLabelPosition=middle;verticalAlign=middle;spacingLeft=10;" vertex="1" parent="xHrqsBkSKCTV0WYc4xok-3">
          <mxGeometry y="380" width="40" height="40" as="geometry" />
        </mxCell>
        <mxCell id="xHrqsBkSKCTV0WYc4xok-12" value="Tipo de usuário" style="shape=waypoint;sketch=0;fillStyle=solid;size=6;pointerEvents=1;points=[];fillColor=none;resizable=0;rotatable=0;perimeter=centerPerimeter;snapToPoint=1;dashed=1;align=left;labelPosition=right;verticalLabelPosition=middle;verticalAlign=middle;spacingLeft=10;" vertex="1" parent="xHrqsBkSKCTV0WYc4xok-3">
          <mxGeometry y="420" width="40" height="40" as="geometry" />
        </mxCell>
        <mxCell id="xHrqsBkSKCTV0WYc4xok-13" value="&lt;div&gt;Pop- up&lt;/div&gt;" style="whiteSpace=wrap;html=1;fillColor=#e1d5e7;strokeColor=#9673a6;" vertex="1" parent="xHrqsBkSKCTV0WYc4xok-3">
          <mxGeometry x="200" y="60" width="120" height="60" as="geometry" />
        </mxCell>
        <mxCell id="xHrqsBkSKCTV0WYc4xok-14" value="Legenda" style="text;strokeColor=none;fillColor=none;html=1;fontSize=24;fontStyle=1;verticalAlign=middle;align=center;dashed=1;" vertex="1" parent="xHrqsBkSKCTV0WYc4xok-3">
          <mxGeometry width="100" height="40" as="geometry" />
        </mxCell>
      </root>
    </mxGraphModel>
  </diagram>
  <diagram id="9RQxL8cNZgCICF_dSmoQ" name="Page-3">
    <mxGraphModel dx="1426" dy="918" grid="1" gridSize="10" guides="1" tooltips="1" connect="1" arrows="1" fold="1" page="1" pageScale="1" pageWidth="1920" pageHeight="1200" math="0" shadow="0">
      <root>
        <mxCell id="neZFqMXactsbDzfpMMdc-0" />
        <mxCell id="neZFqMXactsbDzfpMMdc-1" parent="neZFqMXactsbDzfpMMdc-0" />
        <mxCell id="neZFqMXactsbDzfpMMdc-15" value="Mapa estrutural / Site map" style="swimlane;rounded=1;dashed=1;dashPattern=1 1;fontSize=16;strokeColor=#000000;fillColor=#ffffff;align=left;spacingLeft=10;spacingRight=10;" vertex="1" parent="neZFqMXactsbDzfpMMdc-1">
          <mxGeometry x="990" y="480" width="280" height="223" as="geometry" />
        </mxCell>
        <mxCell id="neZFqMXactsbDzfpMMdc-16" value="" style="group" vertex="1" connectable="0" parent="neZFqMXactsbDzfpMMdc-15">
          <mxGeometry x="20" y="43" width="240" height="160" as="geometry" />
        </mxCell>
        <UserObject label="Organization" treeRoot="1" id="neZFqMXactsbDzfpMMdc-17">
          <mxCell style="whiteSpace=wrap;html=1;align=center;treeFolding=1;treeMoving=1;newEdgeStyle={&quot;edgeStyle&quot;:&quot;elbowEdgeStyle&quot;,&quot;startArrow&quot;:&quot;none&quot;,&quot;endArrow&quot;:&quot;none&quot;};" vertex="1" parent="neZFqMXactsbDzfpMMdc-16">
            <mxGeometry x="60" width="120" height="60" as="geometry" />
          </mxCell>
        </UserObject>
        <mxCell id="neZFqMXactsbDzfpMMdc-18" value="Division" style="whiteSpace=wrap;html=1;align=center;verticalAlign=middle;treeFolding=1;treeMoving=1;newEdgeStyle={&quot;edgeStyle&quot;:&quot;elbowEdgeStyle&quot;,&quot;startArrow&quot;:&quot;none&quot;,&quot;endArrow&quot;:&quot;none&quot;};" vertex="1" parent="neZFqMXactsbDzfpMMdc-16">
          <mxGeometry y="100" width="100" height="60" as="geometry" />
        </mxCell>
        <mxCell id="neZFqMXactsbDzfpMMdc-19" value="" style="edgeStyle=elbowEdgeStyle;elbow=vertical;startArrow=none;endArrow=none;rounded=0;" edge="1" parent="neZFqMXactsbDzfpMMdc-16" source="neZFqMXactsbDzfpMMdc-17" target="neZFqMXactsbDzfpMMdc-18">
          <mxGeometry relative="1" as="geometry" />
        </mxCell>
        <mxCell id="neZFqMXactsbDzfpMMdc-20" value="Division" style="whiteSpace=wrap;html=1;align=center;verticalAlign=middle;treeFolding=1;treeMoving=1;newEdgeStyle={&quot;edgeStyle&quot;:&quot;elbowEdgeStyle&quot;,&quot;startArrow&quot;:&quot;none&quot;,&quot;endArrow&quot;:&quot;none&quot;};" vertex="1" parent="neZFqMXactsbDzfpMMdc-16">
          <mxGeometry x="140" y="100" width="100" height="60" as="geometry" />
        </mxCell>
        <mxCell id="neZFqMXactsbDzfpMMdc-21" value="" style="edgeStyle=elbowEdgeStyle;elbow=vertical;startArrow=none;endArrow=none;rounded=0;" edge="1" parent="neZFqMXactsbDzfpMMdc-16" source="neZFqMXactsbDzfpMMdc-17" target="neZFqMXactsbDzfpMMdc-20">
          <mxGeometry relative="1" as="geometry" />
        </mxCell>
        <mxCell id="0yfFYTODpM-muG2BFbkq-0" value="Outline (lista estruturada)" style="swimlane;rounded=1;dashed=1;dashPattern=1 1;fontSize=16;strokeColor=#000000;fillColor=#ffffff;align=left;spacingLeft=10;spacingRight=10;" vertex="1" parent="neZFqMXactsbDzfpMMdc-1">
          <mxGeometry x="560" y="480" width="240" height="218" as="geometry" />
        </mxCell>
        <mxCell id="0yfFYTODpM-muG2BFbkq-1" value="&lt;ol style=&quot;font-size: 16px ; line-height: 180%&quot;&gt;&lt;li style=&quot;font-size: 16px&quot;&gt;Value 1&lt;/li&gt;&lt;li style=&quot;font-size: 16px&quot;&gt;Value 2&lt;/li&gt;&lt;li style=&quot;font-size: 16px&quot;&gt;Value 3&lt;/li&gt;&lt;/ol&gt;" style="text;html=1;whiteSpace=wrap;verticalAlign=middle;overflow=hidden;dashed=1;dashPattern=1 1;fillColor=#ffffff;strokeColor=#000000;rounded=1;fontSize=16;" vertex="1" parent="0yfFYTODpM-muG2BFbkq-0">
          <mxGeometry x="45" y="43" width="150" height="155" as="geometry" />
        </mxCell>
      </root>
    </mxGraphModel>
  </diagram>
  <diagram id="l-gCmf2SROo4W4hUEnVB" name="Page-4">
    <mxGraphModel dx="3565" dy="2295" grid="1" gridSize="10" guides="1" tooltips="1" connect="1" arrows="1" fold="1" page="1" pageScale="1" pageWidth="1920" pageHeight="1200" math="0" shadow="0">
      <root>
        <mxCell id="xev2-toSduo4_6_y-qRe-0" />
        <mxCell id="xev2-toSduo4_6_y-qRe-1" parent="xev2-toSduo4_6_y-qRe-0" />
        <mxCell id="xev2-toSduo4_6_y-qRe-22" value="Profundidade" style="swimlane;rounded=1;dashed=1;dashPattern=1 1;fontSize=16;strokeColor=#000000;fillColor=#ffffff;align=left;spacingLeft=10;spacingRight=10;" vertex="1" parent="xev2-toSduo4_6_y-qRe-1">
          <mxGeometry x="720" y="510" width="480" height="493" as="geometry" />
        </mxCell>
        <mxCell id="xev2-toSduo4_6_y-qRe-23" value="Start" style="ellipse" vertex="1" parent="xev2-toSduo4_6_y-qRe-22">
          <mxGeometry x="200" y="123" width="80" height="30" as="geometry" />
        </mxCell>
        <mxCell id="xev2-toSduo4_6_y-qRe-24" value="Entry" style="rounded=1;" vertex="1" parent="xev2-toSduo4_6_y-qRe-22">
          <mxGeometry x="80" y="203" width="80" height="30" as="geometry" />
        </mxCell>
        <mxCell id="xev2-toSduo4_6_y-qRe-25" value="" style="edgeStyle=elbowEdgeStyle;elbow=vertical;" edge="1" parent="xev2-toSduo4_6_y-qRe-22" source="xev2-toSduo4_6_y-qRe-23" target="xev2-toSduo4_6_y-qRe-24">
          <mxGeometry relative="1" as="geometry" />
        </mxCell>
        <mxCell id="xev2-toSduo4_6_y-qRe-26" value="Entry" style="rounded=1;" vertex="1" parent="xev2-toSduo4_6_y-qRe-22">
          <mxGeometry x="320" y="203" width="80" height="30" as="geometry" />
        </mxCell>
        <mxCell id="xev2-toSduo4_6_y-qRe-27" value="" style="edgeStyle=elbowEdgeStyle;elbow=vertical;" edge="1" parent="xev2-toSduo4_6_y-qRe-22" source="xev2-toSduo4_6_y-qRe-23" target="xev2-toSduo4_6_y-qRe-26">
          <mxGeometry relative="1" as="geometry" />
        </mxCell>
        <mxCell id="xev2-toSduo4_6_y-qRe-28" value="Entry" style="rounded=1;" vertex="1" parent="xev2-toSduo4_6_y-qRe-22">
          <mxGeometry x="80" y="283" width="80" height="30" as="geometry" />
        </mxCell>
        <mxCell id="xev2-toSduo4_6_y-qRe-29" value="" style="edgeStyle=elbowEdgeStyle;elbow=vertical;" edge="1" parent="xev2-toSduo4_6_y-qRe-22" source="xev2-toSduo4_6_y-qRe-24" target="xev2-toSduo4_6_y-qRe-28">
          <mxGeometry relative="1" as="geometry" />
        </mxCell>
        <mxCell id="xev2-toSduo4_6_y-qRe-30" value="Entry" style="rounded=1;" vertex="1" parent="xev2-toSduo4_6_y-qRe-22">
          <mxGeometry x="20" y="363" width="80" height="30" as="geometry" />
        </mxCell>
        <mxCell id="xev2-toSduo4_6_y-qRe-31" value="" style="edgeStyle=elbowEdgeStyle;elbow=vertical;" edge="1" parent="xev2-toSduo4_6_y-qRe-22" source="xev2-toSduo4_6_y-qRe-28" target="xev2-toSduo4_6_y-qRe-30">
          <mxGeometry relative="1" as="geometry" />
        </mxCell>
        <mxCell id="xev2-toSduo4_6_y-qRe-32" value="Entry" style="rounded=1;" vertex="1" parent="xev2-toSduo4_6_y-qRe-22">
          <mxGeometry x="140" y="363" width="80" height="30" as="geometry" />
        </mxCell>
        <mxCell id="xev2-toSduo4_6_y-qRe-33" value="" style="edgeStyle=elbowEdgeStyle;elbow=vertical;" edge="1" parent="xev2-toSduo4_6_y-qRe-22" source="xev2-toSduo4_6_y-qRe-28" target="xev2-toSduo4_6_y-qRe-32">
          <mxGeometry relative="1" as="geometry" />
        </mxCell>
        <mxCell id="xev2-toSduo4_6_y-qRe-34" value="Entry" style="rounded=1;" vertex="1" parent="xev2-toSduo4_6_y-qRe-22">
          <mxGeometry x="260" y="283" width="80" height="30" as="geometry" />
        </mxCell>
        <mxCell id="xev2-toSduo4_6_y-qRe-35" value="" style="edgeStyle=elbowEdgeStyle;elbow=vertical;" edge="1" parent="xev2-toSduo4_6_y-qRe-22" source="xev2-toSduo4_6_y-qRe-26" target="xev2-toSduo4_6_y-qRe-34">
          <mxGeometry relative="1" as="geometry" />
        </mxCell>
        <mxCell id="xev2-toSduo4_6_y-qRe-36" value="Entry" style="rounded=1;" vertex="1" parent="xev2-toSduo4_6_y-qRe-22">
          <mxGeometry x="380" y="283" width="80" height="30" as="geometry" />
        </mxCell>
        <mxCell id="xev2-toSduo4_6_y-qRe-37" value="" style="edgeStyle=elbowEdgeStyle;elbow=vertical;" edge="1" parent="xev2-toSduo4_6_y-qRe-22" source="xev2-toSduo4_6_y-qRe-26" target="xev2-toSduo4_6_y-qRe-36">
          <mxGeometry relative="1" as="geometry" />
        </mxCell>
        <mxCell id="xev2-toSduo4_6_y-qRe-38" value="Entry" style="rounded=1;" vertex="1" parent="xev2-toSduo4_6_y-qRe-22">
          <mxGeometry x="260" y="363" width="80" height="30" as="geometry" />
        </mxCell>
        <mxCell id="xev2-toSduo4_6_y-qRe-39" value="" style="edgeStyle=elbowEdgeStyle;elbow=vertical;" edge="1" parent="xev2-toSduo4_6_y-qRe-22" source="xev2-toSduo4_6_y-qRe-34" target="xev2-toSduo4_6_y-qRe-38">
          <mxGeometry relative="1" as="geometry" />
        </mxCell>
        <mxCell id="xev2-toSduo4_6_y-qRe-40" value="Entry" style="rounded=1;" vertex="1" parent="xev2-toSduo4_6_y-qRe-22">
          <mxGeometry x="260" y="443" width="80" height="30" as="geometry" />
        </mxCell>
        <mxCell id="xev2-toSduo4_6_y-qRe-41" value="" style="edgeStyle=elbowEdgeStyle;elbow=vertical;" edge="1" parent="xev2-toSduo4_6_y-qRe-22" source="xev2-toSduo4_6_y-qRe-38" target="xev2-toSduo4_6_y-qRe-40">
          <mxGeometry relative="1" as="geometry" />
        </mxCell>
        <mxCell id="xev2-toSduo4_6_y-qRe-42" value="Profundidade" style="text;strokeColor=none;fillColor=none;html=1;fontSize=24;fontStyle=1;verticalAlign=middle;align=center;dashed=1;" vertex="1" parent="xev2-toSduo4_6_y-qRe-22">
          <mxGeometry x="190" y="43" width="100" height="40" as="geometry" />
        </mxCell>
        <mxCell id="xev2-toSduo4_6_y-qRe-45" value="Largura" style="swimlane;rounded=1;dashed=1;dashPattern=1 1;fontSize=16;strokeColor=#000000;fillColor=#ffffff;align=left;spacingLeft=10;spacingRight=10;" vertex="1" parent="xev2-toSduo4_6_y-qRe-1">
          <mxGeometry x="486" y="190" width="948" height="253" as="geometry" />
        </mxCell>
        <mxCell id="xev2-toSduo4_6_y-qRe-46" value="Start" style="ellipse" vertex="1" parent="xev2-toSduo4_6_y-qRe-45">
          <mxGeometry x="464" y="43" width="80" height="30" as="geometry" />
        </mxCell>
        <mxCell id="xev2-toSduo4_6_y-qRe-47" value="Entry" style="rounded=1;" vertex="1" parent="xev2-toSduo4_6_y-qRe-45">
          <mxGeometry x="80" y="123" width="80" height="30" as="geometry" />
        </mxCell>
        <mxCell id="xev2-toSduo4_6_y-qRe-48" value="" style="edgeStyle=elbowEdgeStyle;elbow=vertical;" edge="1" parent="xev2-toSduo4_6_y-qRe-45" source="xev2-toSduo4_6_y-qRe-46" target="xev2-toSduo4_6_y-qRe-47">
          <mxGeometry relative="1" as="geometry" />
        </mxCell>
        <mxCell id="xev2-toSduo4_6_y-qRe-49" value="Entry" style="rounded=1;" vertex="1" parent="xev2-toSduo4_6_y-qRe-45">
          <mxGeometry x="248" y="123" width="80" height="30" as="geometry" />
        </mxCell>
        <mxCell id="xev2-toSduo4_6_y-qRe-50" value="" style="edgeStyle=elbowEdgeStyle;elbow=vertical;" edge="1" parent="xev2-toSduo4_6_y-qRe-45" source="xev2-toSduo4_6_y-qRe-46" target="xev2-toSduo4_6_y-qRe-49">
          <mxGeometry relative="1" as="geometry" />
        </mxCell>
        <mxCell id="xev2-toSduo4_6_y-qRe-51" value="Entry" style="rounded=1;" vertex="1" parent="xev2-toSduo4_6_y-qRe-45">
          <mxGeometry x="368" y="123" width="80" height="30" as="geometry" />
        </mxCell>
        <mxCell id="xev2-toSduo4_6_y-qRe-52" value="" style="edgeStyle=elbowEdgeStyle;elbow=vertical;" edge="1" parent="xev2-toSduo4_6_y-qRe-45" source="xev2-toSduo4_6_y-qRe-46" target="xev2-toSduo4_6_y-qRe-51">
          <mxGeometry relative="1" as="geometry" />
        </mxCell>
        <mxCell id="xev2-toSduo4_6_y-qRe-53" value="Entry" style="rounded=1;" vertex="1" parent="xev2-toSduo4_6_y-qRe-45">
          <mxGeometry x="488" y="123" width="80" height="30" as="geometry" />
        </mxCell>
        <mxCell id="xev2-toSduo4_6_y-qRe-54" value="" style="edgeStyle=elbowEdgeStyle;elbow=vertical;" edge="1" parent="xev2-toSduo4_6_y-qRe-45" source="xev2-toSduo4_6_y-qRe-46" target="xev2-toSduo4_6_y-qRe-53">
          <mxGeometry relative="1" as="geometry" />
        </mxCell>
        <mxCell id="xev2-toSduo4_6_y-qRe-55" value="Entry" style="rounded=1;" vertex="1" parent="xev2-toSduo4_6_y-qRe-45">
          <mxGeometry x="20" y="203" width="80" height="30" as="geometry" />
        </mxCell>
        <mxCell id="xev2-toSduo4_6_y-qRe-56" value="" style="edgeStyle=elbowEdgeStyle;elbow=vertical;" edge="1" parent="xev2-toSduo4_6_y-qRe-45" source="xev2-toSduo4_6_y-qRe-47" target="xev2-toSduo4_6_y-qRe-55">
          <mxGeometry relative="1" as="geometry" />
        </mxCell>
        <mxCell id="xev2-toSduo4_6_y-qRe-57" value="Entry" style="rounded=1;" vertex="1" parent="xev2-toSduo4_6_y-qRe-45">
          <mxGeometry x="140" y="203" width="80" height="30" as="geometry" />
        </mxCell>
        <mxCell id="xev2-toSduo4_6_y-qRe-58" value="" style="edgeStyle=elbowEdgeStyle;elbow=vertical;" edge="1" parent="xev2-toSduo4_6_y-qRe-45" source="xev2-toSduo4_6_y-qRe-47" target="xev2-toSduo4_6_y-qRe-57">
          <mxGeometry relative="1" as="geometry" />
        </mxCell>
        <mxCell id="xev2-toSduo4_6_y-qRe-59" value="Entry" style="rounded=1;" vertex="1" parent="xev2-toSduo4_6_y-qRe-45">
          <mxGeometry x="608" y="123" width="80" height="30" as="geometry" />
        </mxCell>
        <mxCell id="xev2-toSduo4_6_y-qRe-60" value="" style="edgeStyle=elbowEdgeStyle;elbow=vertical;" edge="1" parent="xev2-toSduo4_6_y-qRe-45" source="xev2-toSduo4_6_y-qRe-46" target="xev2-toSduo4_6_y-qRe-59">
          <mxGeometry relative="1" as="geometry" />
        </mxCell>
        <mxCell id="xev2-toSduo4_6_y-qRe-61" value="Entry" style="rounded=1;" vertex="1" parent="xev2-toSduo4_6_y-qRe-45">
          <mxGeometry x="728" y="123" width="80" height="30" as="geometry" />
        </mxCell>
        <mxCell id="xev2-toSduo4_6_y-qRe-62" value="" style="edgeStyle=elbowEdgeStyle;elbow=vertical;" edge="1" parent="xev2-toSduo4_6_y-qRe-45" source="xev2-toSduo4_6_y-qRe-46" target="xev2-toSduo4_6_y-qRe-61">
          <mxGeometry relative="1" as="geometry" />
        </mxCell>
        <mxCell id="xev2-toSduo4_6_y-qRe-63" value="Entry" style="rounded=1;" vertex="1" parent="xev2-toSduo4_6_y-qRe-45">
          <mxGeometry x="848" y="123" width="80" height="30" as="geometry" />
        </mxCell>
        <mxCell id="xev2-toSduo4_6_y-qRe-64" value="" style="edgeStyle=elbowEdgeStyle;elbow=vertical;" edge="1" parent="xev2-toSduo4_6_y-qRe-45" source="xev2-toSduo4_6_y-qRe-46" target="xev2-toSduo4_6_y-qRe-63">
          <mxGeometry relative="1" as="geometry" />
        </mxCell>
      </root>
    </mxGraphModel>
  </diagram>
</mxfile>
